<?xml version="1.0" encoding="utf-8"?>
<svg width="16" height="16" viewBox="0 0 16 16" preserveAspectRatio="xMidYMid" xmlns="http://www.w3.org/2000/svg">
  <path d="M 15 15 L 0 15 L 0 0 L 15 0 L 15 15 Z" fill="#FA2A00"/>
  <path d="M 9.819 8.682 C 9.491 10.481 7.946 11.953 5.562 11.953 C 2.714 11.953 1 9.861 1 7.478 C 1 5.142 2.63 3 5.537 3 C 8.031 3 9.577 4.569 9.807 6.527 L 7.751 6.527 C 7.569 5.53 6.815 4.776 5.562 4.776 C 3.931 4.776 3.007 6.066 3.007 7.478 C 3.007 8.973 4.041 10.178 5.586 10.178 C 6.73 10.178 7.484 9.521 7.727 8.682 L 9.819 8.682 Z M 12.207 3.199 L 10.951 3.737 L 12.525 7.419 L 10.95 11.102 L 12.207 11.639 L 13.263 9.15 L 13.269 9.162 L 14 7.419 L 12.207 3.199 Z" fill="#FFF"/>
</svg>
